<?xml version="1.0" standalone="no"?><!DOCTYPE svg PUBLIC "-//W3C//DTD SVG 1.1//EN" "http://www.w3.org/Graphics/SVG/1.1/DTD/svg11.dtd"><svg t="1572950683365" class="icon" viewBox="0 0 1024 1024" version="1.1" xmlns="http://www.w3.org/2000/svg" p-id="5042" xmlns:xlink="http://www.w3.org/1999/xlink" width="81" height="81"><defs><style type="text/css"></style></defs><path d="M63.913 511.999c0 51.629 41.853 93.483 93.483 93.483 51.631 0 93.483-41.854 93.483-93.483 0-51.63-41.853-93.483-93.483-93.483-51.63 0.001-93.483 41.853-93.483 93.483z m354.256 0c0 51.629 41.854 93.483 93.483 93.483 51.628 0 93.483-41.854 93.483-93.483 0-51.63-41.854-93.483-93.483-93.483-51.629 0.001-93.483 41.853-93.483 93.483z m354.258 0c0 51.629 41.853 93.483 93.483 93.483s93.483-41.854 93.483-93.483c0-51.63-41.852-93.483-93.483-93.483-51.63 0.001-93.483 41.853-93.483 93.483z" p-id="5043" fill="#0088ff"></path></svg>